<?xml version="1.0" encoding="utf-8"?>
<!-- Generator: Adobe Illustrator 23.0.4, SVG Export Plug-In . SVG Version: 6.00 Build 0)  -->
<svg version="1.1" id="Capa_1" xmlns="http://www.w3.org/2000/svg" xmlns:xlink="http://www.w3.org/1999/xlink" x="0px" y="0px"
	 viewBox="0 0 80 80" style="enable-background:new 0 0 80 80;" xml:space="preserve">
<style type="text/css">
	.st0{fill:#43484C;}
</style>
<g>
	<g>
		<g>
			<path class="st0" d="M58.6,22.2c-0.3-0.3-0.7-0.5-1.1-0.5s-0.8,0.2-1.1,0.5c-0.3,0.3-0.5,0.7-0.5,1.1c0,0.4,0.2,0.8,0.5,1.1
				c0.3,0.3,0.7,0.5,1.1,0.5s0.8-0.2,1.1-0.5c0.3-0.3,0.5-0.7,0.5-1.1S58.9,22.5,58.6,22.2z"/>
		</g>
	</g>
	<g>
		<g>
			<path class="st0" d="M23.4,44.1H10.9c-0.9,0-1.6,0.7-1.6,1.6v12.5c0,0.9,0.7,1.6,1.6,1.6h12.5c0.9,0,1.6-0.7,1.6-1.6V45.6
				C25,44.8,24.3,44.1,23.4,44.1z M21.9,56.6h-9.4v-9.4h9.4V56.6z"/>
		</g>
	</g>
	<g>
		<g>
			<path class="st0" d="M79,32.8c-0.6-0.2-1.3-0.1-1.7,0.3L61.4,49l0,0l0,0L42.9,67.6l0,0l0,0l-9.7,9.7c-0.5,0.5-0.6,1.1-0.3,1.7
				s0.8,1,1.4,1h44.2c0.9,0,1.6-0.7,1.6-1.6V34.2C80,33.6,79.6,33,79,32.8z M76.9,76.9H38l6-6l1.5,1.5c0.3,0.3,0.7,0.5,1.1,0.5
				s0.8-0.2,1.1-0.5c0.6-0.6,0.6-1.6,0-2.2l-1.5-1.5l4-4l1.5,1.5c0.3,0.3,0.7,0.5,1.1,0.5s0.8-0.2,1.1-0.5c0.6-0.6,0.6-1.6,0-2.2
				l-1.5-1.5l4-4l1.5,1.5c0.3,0.3,0.7,0.5,1.1,0.5s0.8-0.2,1.1-0.5c0.6-0.6,0.6-1.6,0-2.2l-1.5-1.5l4-4l1.5,1.5
				c0.3,0.3,0.7,0.5,1.1,0.5s0.8-0.2,1.1-0.5c0.6-0.6,0.6-1.6,0-2.2l-1.5-1.5l4-4l1.5,1.5c0.3,0.3,0.7,0.5,1.1,0.5s0.8-0.2,1.1-0.5
				c0.6-0.6,0.6-1.6,0-2.2L71,44l6-6L76.9,76.9L76.9,76.9z"/>
		</g>
	</g>
	<g>
		<g>
			<path class="st0" d="M71.2,51.6c-0.6-0.2-1.3-0.1-1.7,0.3L52,69.5c-0.5,0.5-0.6,1.1-0.3,1.7c0.2,0.6,0.8,1,1.4,1h17.6
				c0.9,0,1.6-0.7,1.6-1.6V53.1C72.2,52.5,71.8,51.9,71.2,51.6z M69.1,69.1H56.9l12.2-12.2V69.1z"/>
		</g>
	</g>
	<g>
		<g>
			<path class="st0" d="M72.4,23.3c-0.4-0.4-1.1-0.6-1.6-0.4l-10.7,3.9c-0.2,0.1-0.4,0.2-0.6,0.4l-3,3L36.9,10.6
				c-0.3-0.3-0.7-0.5-1.1-0.5c-0.4,0-0.8,0.2-1.1,0.5L11.1,34.2H5.3L35.8,3.8l16.7,16.7c0.6,0.6,1.6,0.6,2.2,0
				c0.6-0.6,0.6-1.6,0-2.2L36.9,0.5c-0.6-0.6-1.6-0.6-2.2,0L0.5,34.7c-0.5,0.5-0.6,1.1-0.3,1.7c0.3,0.6,0.8,1,1.5,1h1.6v41.1
				c0,0.9,0.7,1.6,1.6,1.6h24.8c0.9,0,1.6-0.7,1.6-1.6c0-0.9-0.7-1.6-1.6-1.6H6.3V37.3h5.5c0.4,0,0.8-0.2,1.1-0.5L35.8,14l18.5,18.5
				L31.1,55.6v-14H42c0.9,0,1.6-0.7,1.6-1.6s-0.7-1.6-1.6-1.6H29.5c-0.9,0-1.6,0.7-1.6,1.6v18.1c0,0.2,0,0.4,0.1,0.5L26.7,60
				c-2.5,2.5-2.5,6.5,0,9c1.2,1.2,2.9,1.9,4.5,1.9c1.6,0,3.3-0.6,4.5-1.9l13.2-13.2c0.6-0.6,0.6-1.6,0-2.2s-1.6-0.6-2.2,0l-10,10
				l-4.5-4.6l28.6-28.5l4.5,4.5L54.3,46c-0.6,0.6-0.6,1.6,0,2.2s1.6,0.6,2.2,0l12-12c0.2-0.2,0.3-0.4,0.4-0.6L72.7,25
				C72.9,24.4,72.8,23.8,72.4,23.3z M34.4,65.8l-1,1c-0.6,0.6-1.4,0.9-2.3,0.9c-0.9,0-1.7-0.3-2.3-0.9s-0.9-1.4-0.9-2.3
				c0-0.9,0.3-1.7,0.9-2.3l1-1L34.4,65.8z M66.7,32.2L63.5,29l5.2-1.9L66.7,32.2z"/>
		</g>
	</g>
	<g>
		<g>
			<path class="st0" d="M52.6,49.8c-0.3-0.3-0.7-0.5-1.1-0.5c-0.4,0-0.8,0.2-1.1,0.5c-0.3,0.3-0.5,0.7-0.5,1.1
				c0,0.4,0.2,0.8,0.5,1.1c0.3,0.3,0.7,0.5,1.1,0.5c0.4,0,0.8-0.2,1.1-0.5c0.3-0.3,0.5-0.7,0.5-1.1C53.1,50.5,52.9,50.1,52.6,49.8z"
				/>
		</g>
	</g>
	<g>
		<g>
			<path class="st0" d="M35.8,23.6c-3.3,0-5.9,2.7-5.9,5.9s2.7,5.9,5.9,5.9c3.3,0,5.9-2.7,5.9-5.9S39.1,23.6,35.8,23.6z M35.8,32.3
				c-1.5,0-2.8-1.3-2.8-2.8s1.3-2.8,2.8-2.8s2.8,1.3,2.8,2.8S37.3,32.3,35.8,32.3z"/>
		</g>
	</g>
</g>
</svg>
