<?xml version="1.0" encoding="utf-8"?>
<!-- Generator: Adobe Illustrator 23.0.4, SVG Export Plug-In . SVG Version: 6.00 Build 0)  -->
<svg version="1.1" id="圖層_1" xmlns="http://www.w3.org/2000/svg" xmlns:xlink="http://www.w3.org/1999/xlink" x="0px" y="0px"
	 viewBox="0 0 80 80" style="enable-background:new 0 0 80 80;" xml:space="preserve">
<style type="text/css">
	.st0{fill:#43484C;}
	.st1{fill:#FFFFFF;}
</style>
<title>資產 1</title>
<g>
	<g id="圖層_1-2">
		<g id="Capa_1">
			<path class="st0" d="M79.6,37.9c0.4-0.7,0.4-1.8,0.4-2.5v-3.2c-0.7-16.8-18.6-30-40-30C17.9,1.8,0,16.1,0,33.6
				C0,49.6,15.4,62.9,34.6,65c1.1,0,1.8,1.1,1.8,2.1v0.4l-1.1,7.9c0,1.1,1.1,2.1,2.1,2.5c0.4,0,0.7,0,1.1-0.4
				c12.5-5.4,23.6-13.2,32.5-23.2c2.1-2.5,3.9-5,5.4-7.5C77.9,43.9,78.9,41.1,79.6,37.9z"/>
			<path class="st1" d="M18.2,40V26.8c0-1.1-1.1-2.1-2.1-2.1l0,0c-1.1,0-2.1,1.1-2.1,2.1v15.4c0,1.1,1.1,2.1,2.1,2.1h8.2
				c1.1,0,2.1-1.1,2.1-2.1l0,0c0-1.1-1.1-2.1-2.1-2.1H18.2z"/>
			<path class="st1" d="M30.7,44.3h-1.1c-0.7,0-1.4-0.4-1.4-1.1c0,0,0,0,0-0.4V26.4c0-0.7,0.4-1.4,1.1-1.4c0,0,0,0,0.4,0h1.1
				c0.7,0,1.4,0.4,1.4,1.1c0,0,0,0,0,0.4l0,0v16.4C32.1,43.6,31.4,44.3,30.7,44.3z"/>
			<path class="st1" d="M47.1,26.8v9.3L38.9,25c-0.7-0.7-2.1-0.7-2.9,0c-0.4,0.4-0.7,0.7-0.7,1.4v15.4c0,1.1,1.1,2.1,2.1,2.1l0,0
				c1.1,0,2.1-1.1,2.1-2.1l0,0v-9.3c0,0,8.2,10.7,8.6,11.1c0.4,0.4,0.7,0.7,1.4,0.7c1.1,0,2.1-1.1,2.1-2.1l0,0V26.8
				c0-1.1-1.1-2.1-2.1-2.1l0,0C48.2,24.6,47.1,25.4,47.1,26.8z"/>
			<path class="st1" d="M66.8,26.8L66.8,26.8c0-1.1-1.1-2.1-2.1-2.1h-8.2c-1.1,0-2.1,1.1-2.1,2.1v15.4c0,1.1,1.1,2.1,2.1,2.1h8.2
				c1.1,0,2.1-1.1,2.1-2.1l0,0c0-1.1-1.1-2.1-2.1-2.1h-6.1v-3.6h6.1c1.1,0,2.1-1.1,2.1-2.1l0,0c0-1.1-1.1-2.1-2.1-2.1h-6.1v-3.6h6.1
				C65.7,28.6,66.8,27.9,66.8,26.8z"/>
		</g>
	</g>
</g>
</svg>
