<?xml version="1.0" encoding="utf-8"?>
<!-- Generator: Adobe Illustrator 23.0.4, SVG Export Plug-In . SVG Version: 6.00 Build 0)  -->
<svg version="1.1" id="Capa_1" xmlns="http://www.w3.org/2000/svg" xmlns:xlink="http://www.w3.org/1999/xlink" x="0px" y="0px"
	 viewBox="0 0 80 80" style="enable-background:new 0 0 80 80;" xml:space="preserve">
<style type="text/css">
	.st0{fill:#43484C;}
</style>
<g>
	<path class="st0" d="M75.7,6.7V6.6h-0.4H4.7H4.3v0.1C2,6.9,0.3,8.7,0,11v0.4v46.5c0,0.9,0.2,1.7,0.6,2.3c0.9,1.6,2.2,2.4,4.1,2.4
		h25.8v6.5h-4.9c-1.2,0-2.2,0.9-2.2,2.2c0,1.2,0.9,2.2,2.2,2.2h28.8c1.2,0,2.2-0.9,2.2-2.2c0-1.2-1-2.2-2.2-2.2h-4.9v-6.5h25.8
		c1.8,0,3.2-0.8,4.1-2.4c0.4-0.7,0.7-1.5,0.7-2.3V11.3V11C79.7,8.7,77.9,6.9,75.7,6.7z M75.7,11.3v46.5c0,0.3-0.1,0.4-0.4,0.4H4.7
		c-0.3,0-0.4-0.1-0.4-0.4V11.3V11h71.3L75.7,11.3L75.7,11.3z"/>
</g>
</svg>
