<?xml version="1.0" encoding="utf-8"?>
<!-- Generator: Adobe Illustrator 23.0.4, SVG Export Plug-In . SVG Version: 6.00 Build 0)  -->
<svg version="1.1" id="圖層_1" xmlns="http://www.w3.org/2000/svg" xmlns:xlink="http://www.w3.org/1999/xlink" x="0px" y="0px"
	 viewBox="0 0 80 80" style="enable-background:new 0 0 80 80;" xml:space="preserve">
<style type="text/css">
	.st0{fill:#43484C;}
</style>
<g>
	<path class="st0" d="M60.9,5.5c-0.5-0.5-1.3-0.7-1.9-0.4c-0.7,0.3-1.1,0.9-1.1,1.6v9.4c-9.5,0.4-14.3,4.3-15,5
		c-4.8,3.9-8.1,9.4-9.3,15.5c-0.6,2.9-0.7,6-0.3,9v0c0,0,0,0.1,0,0.1l0.4,2.2c0.1,0.7,0.7,1.3,1.4,1.4c0.7,0.1,1.4-0.2,1.8-0.8
		l1.1-1.9c3.4-5.7,7.7-9.5,12.8-11.3c2.3-0.8,4.7-1.1,7.1-1V44c0,0.7,0.4,1.4,1.1,1.6c0.7,0.3,1.4,0.1,1.9-0.4l18.6-18.7
		c0.7-0.7,0.7-1.8,0-2.5L60.9,5.5z M61.4,39.8v-7c0-0.9-0.6-1.6-1.5-1.7c-1.5-0.2-5.5-0.6-10.3,1c-5.1,1.8-9.4,5.3-13.1,10.4
		c0-1.7,0.1-3.4,0.5-5c1.1-5.4,3.8-10,8.1-13.5c0,0,0.1-0.1,0.1-0.1c0.1-0.1,4.6-4.2,14.4-4.1h0c1,0,1.8-0.8,1.8-1.8V11l14.4,14.3
		L61.4,39.8z"/>
	<path class="st0" d="M73.5,56.9c-1,0-1.8,0.8-1.8,1.8v7.5c0,2.9-2.4,5.3-5.3,5.3H8.8c-2.9,0-5.3-2.4-5.3-5.3v-42
		c0-2.9,2.4-5.3,5.3-5.3H21c1,0,1.8-0.8,1.8-1.8c0-1-0.8-1.8-1.8-1.8H8.8c-4.9,0-8.8,3.9-8.8,8.8v42C0,71,3.9,75,8.8,75h57.7
		c4.9,0,8.8-3.9,8.8-8.8v-7.5C75.3,57.7,74.5,56.9,73.5,56.9z"/>
</g>
</svg>
