<?xml version="1.0" encoding="utf-8"?>
<!-- Generator: Adobe Illustrator 23.0.4, SVG Export Plug-In . SVG Version: 6.00 Build 0)  -->
<svg version="1.1" id="Capa_1" xmlns="http://www.w3.org/2000/svg" xmlns:xlink="http://www.w3.org/1999/xlink" x="0px" y="0px"
	 viewBox="0 0 80 80" style="enable-background:new 0 0 80 80;" xml:space="preserve">
<style type="text/css">
	.st0{fill:#43484C;}
</style>
<g>
	<g>
		<path class="st0" d="M68.3,51.7c-4.4-4.4-9.5-7.6-15.2-9.5c6.1-4.2,10-11.2,10-19.1C63.1,10.4,52.8,0,40,0S16.9,10.4,16.9,23.1
			c0,7.9,4,14.9,10,19.1c-5.7,2-10.8,5.2-15.2,9.5C4.2,59.3,0,69.3,0,80h6.2c0-18.6,15.1-33.8,33.8-33.8S73.8,61.4,73.8,80H80
			C80,69.3,75.8,59.3,68.3,51.7z M40,40c-9.3,0-16.9-7.6-16.9-16.9S30.7,6.2,40,6.2s16.9,7.6,16.9,16.9S49.3,40,40,40z"/>
	</g>
</g>
</svg>
