<?xml version="1.0" encoding="utf-8"?>
<!-- Generator: Adobe Illustrator 23.0.4, SVG Export Plug-In . SVG Version: 6.00 Build 0)  -->
<svg version="1.1" id="圖層_1" xmlns="http://www.w3.org/2000/svg" xmlns:xlink="http://www.w3.org/1999/xlink" x="0px" y="0px"
	 viewBox="0 0 80 80" style="enable-background:new 0 0 80 80;" xml:space="preserve">
<style type="text/css">
	.st0{fill-rule:evenodd;clip-rule:evenodd;fill:#43484C;}
	.st1{fill-rule:evenodd;clip-rule:evenodd;fill:#FFFFFF;}
</style>
<title>wechat</title>
<g>
	<path class="st0" d="M71.6,65.1c5-3.4,8.4-9.1,8.4-15.2c0-11-10.7-20.2-24-20.2s-24,9.1-24,20.2s10.7,20.2,24,20.2
		c2.7,0,5.3-0.4,8-1.1h0.8c0.4,0,0.8,0,1.1,0.4l5.3,3h0.4c0.4,0,0.8-0.4,0.8-0.8v-0.4l-1.1-4.6v-0.4C71.2,65.9,71.2,65.5,71.6,65.1z
		"/>
	<path class="st0" d="M29,7.6c-16,0-29,10.7-29,24c0.4,7.2,3.8,14.1,9.9,18.3c0.4,0.4,0.8,0.8,0.8,1.5v0.8l-1.1,5v0.8
		c0,0.4,0.4,0.8,0.8,0.8h0.4l6.5-3.8c0.4-0.4,1.1-0.4,1.5-0.4h0.8c3,0.8,6.1,1.5,9.5,1.5h1.5c-0.8-1.9-1.1-3.8-1.1-5.7
		c0-12.2,11.8-22.1,26.3-22.1h1.5C55.2,16.4,43.4,7.6,29,7.6z"/>
	<path class="st1" d="M48,46.9c-1.9,0-3.4-1.5-3.4-3c0-1.9,1.5-3.4,3-3.4c1.9,0,3.4,1.5,3.4,3l0,0C51,45.3,49.5,46.9,48,46.9
		L48,46.9L48,46.9z"/>
	<path class="st1" d="M64,46.9c-1.9,0-3.4-1.5-3.4-3.4S62.1,40,64,40c1.9,0,3.4,1.5,3.4,3.4C67.4,45.3,65.9,46.9,64,46.9L64,46.9
		L64,46.9z"/>
	<circle class="st1" cx="19.4" cy="24" r="3.8"/>
	<circle class="st1" cx="38.5" cy="24" r="3.8"/>
</g>
</svg>
