<?xml version="1.0" encoding="utf-8"?>
<!-- Generator: Adobe Illustrator 23.0.4, SVG Export Plug-In . SVG Version: 6.00 Build 0)  -->
<svg version="1.1" id="圖層_1" xmlns="http://www.w3.org/2000/svg" xmlns:xlink="http://www.w3.org/1999/xlink" x="0px" y="0px"
	 viewBox="0 0 80 80" style="enable-background:new 0 0 80 80;" xml:space="preserve">
<style type="text/css">
	.st0{fill:#43484C;}
</style>
<title>youtube</title>
<g>
	<g id="圖層_1-2">
		<path class="st0" d="M78.3,20.7c-0.9-3.5-3.6-6.2-7.1-7.1C65,11.9,40,11.9,40,11.9s-25,0-31.3,1.7c-3.5,0.9-6.2,3.7-7.1,7.1
			C0,27,0,40.1,0,40.1s0,13.1,1.7,19.4c0.9,3.5,3.6,6.1,7.1,7C15,68.1,40,68.1,40,68.1s25,0,31.3-1.7c3.4-0.9,6.2-3.5,7.1-7
			C80,53.2,80,40.1,80,40.1S80,27,78.3,20.7z M31.8,52V28.2l20.9,11.9L31.8,52L31.8,52z"/>
	</g>
</g>
</svg>
